<svg width="250" height="250" viewBox="0 0 250 250" fill="none" xmlns="http://www.w3.org/2000/svg">
    <rect width="250" height="250" rx="28" fill="#001421"/>
    <path d="M158.107 88.7127C157.419 89.395 157.376 92.4451 157.376 124.592C157.376 158.103 157.419 159.749 158.15 160.351C159.226 161.274 161.506 161.194 162.539 160.23C163.399 159.428 163.399 158.906 163.399 124.512C163.399 90.1173 163.399 89.5956 162.539 88.7929C161.42 87.7495 159.054 87.7495 158.107 88.7127Z" fill="#82E91D"/>
    <path d="M104.628 93.2478C102.219 94.0504 102.305 92.8866 102.305 124.512C102.305 150.598 102.391 153.729 102.993 154.532C104.413 156.418 107.295 156.338 108.285 154.371C108.973 152.966 108.973 96.0571 108.285 94.6524C107.683 93.4886 105.919 92.7662 104.628 93.2478Z" fill="#82E91D"/>
    <path d="M87.6763 98.0236C86.8158 98.8263 86.8158 99.348 86.8158 124.512C86.8158 149.675 86.8158 150.197 87.6763 151C88.7088 151.963 90.5589 152.043 91.8927 151.16L92.8392 150.558V124.512V98.4651L91.8927 97.8631C90.5589 96.9802 88.7088 97.0604 87.6763 98.0236Z" fill="#82E91D"/>
    <path d="M118.955 98.3447C118.31 99.027 118.224 101.435 118.224 124.592C118.224 148.752 118.267 150.117 118.998 150.719C119.428 151.12 120.504 151.401 121.364 151.401C124.376 151.401 124.247 152.605 124.247 124.512C124.247 96.3381 124.376 97.6223 121.278 97.6223C120.246 97.6223 119.385 97.9033 118.955 98.3447Z" fill="#82E91D"/>
    <path d="M150.449 98.7862L149.416 99.5487V124.512V149.475L150.449 150.237C151.826 151.281 153.332 151.2 154.579 149.996L155.655 149.033V124.512V99.9902L154.579 99.027C153.332 97.823 151.826 97.7427 150.449 98.7862Z" fill="#82E91D"/>
    <path d="M189.601 100.392L188.569 101.154V124.512V147.869L189.601 148.632C190.978 149.675 192.484 149.595 193.732 148.391L194.807 147.428V124.512V101.596L193.732 100.632C192.484 99.4283 190.978 99.348 189.601 100.392Z" fill="#82E91D"/>
    <path d="M127.087 101.274L125.968 102.077V124.512V146.946L127.087 147.749C128.55 148.792 129.41 148.792 130.873 147.749L131.991 146.946V124.512V102.077L130.873 101.274C130.227 100.793 129.41 100.432 128.98 100.432C128.55 100.432 127.732 100.793 127.087 101.274Z" fill="#82E91D"/>
    <path d="M205.133 101.234C204.273 102.037 204.273 102.559 204.273 124.512C204.273 146.465 204.273 146.986 205.133 147.789C205.606 148.231 206.553 148.592 207.284 148.592C208.016 148.592 208.962 148.231 209.436 147.789C210.296 146.986 210.296 146.465 210.296 124.512C210.296 102.559 210.296 102.037 209.436 101.234C208.962 100.793 208.016 100.432 207.284 100.432C206.553 100.432 205.606 100.793 205.133 101.234Z" fill="#82E91D"/>
    <path d="M48.61 104.164C47.6635 105.087 47.6635 105.127 47.6635 124.552V144.057L48.653 144.899C49.9007 145.983 51.5357 146.023 52.8694 145.02L53.902 144.257V124.512V104.766L52.8694 104.004C51.4926 102.96 49.7286 103.04 48.61 104.164Z" fill="#82E91D"/>
    <path d="M32.9061 107.575C32.2607 108.258 32.1747 110.024 32.1747 124.592C32.1747 139.843 32.2177 140.886 32.9491 141.488C34.0247 142.411 36.305 142.331 37.3376 141.368C38.1551 140.605 38.1981 140.043 38.1981 124.512C38.1981 108.98 38.1551 108.418 37.3376 107.656C36.219 106.612 33.8526 106.612 32.9061 107.575Z" fill="#82E91D"/>
    <path d="M165.809 110.144C165.206 110.906 165.12 112.953 165.12 124.512C165.12 139.803 165.12 139.762 168.132 139.762C171.144 139.762 171.144 139.803 171.144 124.271C171.144 111.508 171.101 110.545 170.369 109.943C169.165 108.94 166.626 109.06 165.809 110.144Z" fill="#82E91D"/>
    <path d="M95.4637 111.91C94.6032 112.953 94.5602 113.435 94.5602 124.512C94.5602 135.589 94.6032 136.07 95.4637 137.114C96.5393 138.358 98.3033 138.478 99.7661 137.395L100.799 136.632V124.512V112.391L99.7661 111.629C98.3033 110.545 96.5393 110.666 95.4637 111.91Z" fill="#82E91D"/>
    <path d="M134.788 111.87L133.712 112.833V124.512V136.191L134.788 137.154C136.079 138.398 137.197 138.438 138.746 137.194L139.951 136.231L140.08 125.435C140.252 113.716 140.037 112.11 138.23 111.348C136.595 110.666 135.95 110.746 134.788 111.87Z" fill="#82E91D"/>
    <path d="M111.082 114.518C110.307 115.281 110.264 116.084 110.264 124.512C110.264 132.94 110.307 133.742 111.082 134.505C112.157 135.589 114.481 135.629 115.642 134.545C116.46 133.783 116.503 133.221 116.503 124.512C116.503 115.803 116.46 115.241 115.642 114.478C114.481 113.395 112.157 113.435 111.082 114.518Z" fill="#82E91D"/>
    <path d="M40.8656 116.605C39.9621 117.488 39.9191 117.89 39.9191 124.552C39.9191 131.415 39.9621 131.615 40.9086 132.458C42.1994 133.582 43.8343 133.582 44.996 132.418C45.8995 131.535 45.9425 131.134 45.9425 124.472C45.9425 117.609 45.8995 117.408 44.9529 116.565C43.6622 115.442 42.0273 115.442 40.8656 116.605Z" fill="#82E91D"/>
    <path d="M57.344 116.164C55.537 117.087 55.4079 117.609 55.4079 124.351C55.4079 127.923 55.537 131.174 55.666 131.535C55.8381 131.856 56.5265 132.458 57.2149 132.779C58.8068 133.542 60.6569 132.98 61.3883 131.495C62.0337 130.171 62.0337 118.853 61.3883 117.569C61.1301 117.007 60.4417 116.365 59.8394 116.124C58.5917 115.602 58.4196 115.602 57.344 116.164Z" fill="#82E91D"/>
    <path d="M79.9318 116.485C79.1144 117.248 79.0714 117.809 79.0714 124.512C79.0714 131.214 79.1144 131.776 79.9318 132.538C80.4051 132.98 81.3516 133.341 82.0831 133.341C82.8145 133.341 83.761 132.98 84.2343 132.538C85.0518 131.776 85.0948 131.214 85.0948 124.512C85.0948 117.809 85.0518 117.248 84.2343 116.485C83.761 116.044 82.8145 115.682 82.0831 115.682C81.3516 115.682 80.4051 116.044 79.9318 116.485Z" fill="#82E91D"/>
    <path d="M197.131 116.525C196.399 117.288 196.313 118.05 196.313 124.512C196.313 130.973 196.399 131.736 197.131 132.498C198.206 133.582 200.529 133.622 201.691 132.538C202.509 131.776 202.552 131.214 202.552 124.512C202.552 117.809 202.509 117.248 201.691 116.485C200.529 115.401 198.206 115.442 197.131 116.525Z" fill="#82E91D"/>
    <path d="M173.725 117.288C172.951 118.01 172.865 118.612 172.865 124.512C172.865 130.411 172.951 131.013 173.725 131.736C174.844 132.779 177.21 132.779 178.157 131.816C178.759 131.174 178.888 130.05 178.888 124.431C178.888 118.532 178.802 117.729 178.114 117.167C177.038 116.244 174.758 116.324 173.725 117.288Z" fill="#82E91D"/>
    <path d="M212.705 117.368C212.146 118.09 212.017 119.495 212.017 124.512C212.017 131.816 212.275 132.538 214.986 132.538C217.825 132.538 218.04 132.017 218.04 124.431C218.04 118.532 217.954 117.729 217.266 117.167C216.061 116.164 213.523 116.284 212.705 117.368Z" fill="#82E91D"/>
    <path d="M25.2907 118.01L24 119.214V124.512V129.809L25.2907 131.013C26.3663 131.977 26.8396 132.177 27.7862 131.977C30.1525 131.455 30.4537 130.572 30.4537 124.512C30.4537 118.452 30.1525 117.569 27.7862 117.047C26.8396 116.846 26.3663 117.047 25.2907 118.01Z" fill="#82E91D"/>
    <path d="M65.4756 119.335C63.7546 119.896 63.1523 121.261 63.1523 124.592C63.1523 127.241 63.2814 127.843 64.1418 128.686C65.5617 130.171 67.3687 130.251 68.7455 128.846C69.4769 128.124 69.606 127.441 69.606 124.592C69.606 122.746 69.4339 120.9 69.1757 120.498C68.6164 119.575 66.6373 118.933 65.4756 119.335Z" fill="#82E91D"/>
    <path d="M142.36 119.936C141.586 120.819 141.457 121.582 141.457 124.512C141.457 128.726 142.274 130.13 144.684 130.13C147.093 130.13 147.911 128.726 147.911 124.512C147.911 120.298 147.093 118.893 144.684 118.893C143.651 118.893 143.006 119.174 142.36 119.936Z" fill="#82E91D"/>
    <path d="M182.459 119.495C180.781 120.137 180.609 120.659 180.609 124.752C180.609 127.602 180.738 128.244 181.47 128.926C182.889 130.251 184.696 130.13 186.116 128.686C186.934 127.803 187.063 127.241 187.063 124.552C187.063 122.023 186.891 121.221 186.202 120.418C185.127 119.134 184.094 118.853 182.459 119.495Z" fill="#82E91D"/>
    <path d="M220.708 119.816C219.891 120.659 219.761 121.221 219.761 124.552C219.761 128.043 219.848 128.445 220.751 129.247C222.042 130.371 224.107 130.411 225.183 129.288C225.871 128.565 226 127.803 226 124.512C226 121.221 225.871 120.458 225.183 119.736C224.064 118.572 221.913 118.612 220.708 119.816Z" fill="#82E91D"/>
    <path d="M72.8328 120.98C71.5421 121.662 71.3269 122.104 71.3269 124.512C71.3269 126.96 71.5421 127.401 72.9188 128.084C74.3386 128.766 75.1131 128.645 76.2748 127.522C77.1352 126.759 77.3504 126.157 77.3504 124.512C77.3504 121.381 75.1991 119.736 72.8328 120.98Z" fill="#82E91D"/>
</svg>
