<svg width="250" height="250" viewBox="0 0 250 250" fill="none" xmlns="http://www.w3.org/2000/svg">
    <rect width="250" height="250" rx="28" fill="#FF3E57"/>
    <rect x="25.5" y="25.5" width="199" height="199" rx="27.5" fill="white" stroke="#C4C4C4"/>
    <rect x="25.5" y="92.1667" width="199" height="65.6667" fill="white" stroke="#C4C4C4"/>
    <rect x="92.1667" y="25.5" width="65.6667" height="199" fill="white" stroke="#C4C4C4"/>
    <rect x="92.1667" y="92.1667" width="65.6667" height="65.6667" fill="white" stroke="#C4C4C4"/>
    <path d="M59.6289 80.672C56.9089 80.672 54.2689 80.336 51.7089 79.664C49.1489 78.992 47.0689 78.096 45.4689 76.976L48.5889 69.968C50.0929 70.96 51.8369 71.76 53.8209 72.368C55.8049 72.976 57.7569 73.28 59.6769 73.28C63.3249 73.28 65.1489 72.368 65.1489 70.544C65.1489 69.584 64.6209 68.88 63.5649 68.432C62.5409 67.952 60.8769 67.456 58.5729 66.944C56.0449 66.4 53.9329 65.824 52.2369 65.216C50.5409 64.576 49.0849 63.568 47.8689 62.192C46.6529 60.816 46.0449 58.96 46.0449 56.624C46.0449 54.576 46.6049 52.736 47.7249 51.104C48.8449 49.44 50.5089 48.128 52.7169 47.168C54.9569 46.208 57.6929 45.728 60.9249 45.728C63.1329 45.728 65.3089 45.984 67.4529 46.496C69.5969 46.976 71.4849 47.696 73.1169 48.656L70.1889 55.712C66.9889 53.984 63.8849 53.12 60.8769 53.12C58.9889 53.12 57.6129 53.408 56.7489 53.984C55.8849 54.528 55.4529 55.248 55.4529 56.144C55.4529 57.04 55.9649 57.712 56.9889 58.16C58.0129 58.608 59.6609 59.072 61.9329 59.552C64.4929 60.096 66.6049 60.688 68.2689 61.328C69.9649 61.936 71.4209 62.928 72.6369 64.304C73.8849 65.648 74.5089 67.488 74.5089 69.824C74.5089 71.84 73.9489 73.664 72.8289 75.296C71.7089 76.928 70.0289 78.24 67.7889 79.232C65.5489 80.192 62.8289 80.672 59.6289 80.672Z" fill="black"/>
    <path d="M124.997 80.672C120.005 80.672 116.117 79.312 113.333 76.592C110.581 73.872 109.205 70.016 109.205 65.024V46.4H118.709V64.736C118.709 70.112 120.837 72.8 125.093 72.8C129.317 72.8 131.429 70.112 131.429 64.736V46.4H140.789V65.024C140.789 70.016 139.397 73.872 136.613 76.592C133.861 79.312 129.989 80.672 124.997 80.672Z" fill="black"/>
    <path d="M108.532 109.4H124.42C128.1 109.4 131.364 110.088 134.212 111.464C137.06 112.84 139.268 114.792 140.836 117.32C142.404 119.848 143.188 122.808 143.188 126.2C143.188 129.592 142.404 132.552 140.836 135.08C139.268 137.608 137.06 139.56 134.212 140.936C131.364 142.312 128.1 143 124.42 143H108.532V109.4ZM124.036 135.416C126.916 135.416 129.22 134.6 130.948 132.968C132.708 131.336 133.588 129.08 133.588 126.2C133.588 123.32 132.708 121.064 130.948 119.432C129.22 117.8 126.916 116.984 124.036 116.984H118.036V135.416H124.036Z" fill="black"/>
    <path d="M191.507 142.672C187.955 142.672 184.755 141.92 181.907 140.416C179.091 138.912 176.867 136.832 175.235 134.176C173.635 131.52 172.835 128.528 172.835 125.2C172.835 121.872 173.635 118.88 175.235 116.224C176.867 113.568 179.091 111.488 181.907 109.984C184.755 108.48 187.955 107.728 191.507 107.728C195.059 107.728 198.243 108.48 201.059 109.984C203.907 111.488 206.131 113.568 207.731 116.224C209.363 118.88 210.179 121.872 210.179 125.2C210.179 128.528 209.363 131.52 207.731 134.176C206.131 136.832 203.907 138.912 201.059 140.416C198.243 141.92 195.059 142.672 191.507 142.672ZM191.507 134.8C193.203 134.8 194.739 134.4 196.115 133.6C197.491 132.8 198.579 131.68 199.379 130.24C200.179 128.768 200.579 127.088 200.579 125.2C200.579 123.312 200.179 121.648 199.379 120.208C198.579 118.736 197.491 117.6 196.115 116.8C194.739 116 193.203 115.6 191.507 115.6C189.811 115.6 188.275 116 186.899 116.8C185.523 117.6 184.435 118.736 183.635 120.208C182.835 121.648 182.435 123.312 182.435 125.2C182.435 127.088 182.835 128.768 183.635 130.24C184.435 131.68 185.523 132.8 186.899 133.6C188.275 134.4 189.811 134.8 191.507 134.8Z" fill="black"/>
    <path d="M122.997 209.672C118.005 209.672 114.117 208.312 111.333 205.592C108.581 202.872 107.205 199.016 107.205 194.024V175.4H116.709V193.736C116.709 199.112 118.837 201.8 123.093 201.8C127.317 201.8 129.429 199.112 129.429 193.736V175.4H138.789V194.024C138.789 199.016 137.397 202.872 134.613 205.592C131.861 208.312 127.989 209.672 122.997 209.672Z" fill="black"/>
    <path d="M57.7731 196.808L54.2211 200.6V209H44.8131V175.4H54.2211V189.368L67.2291 175.4H77.6931L63.9651 190.28L78.4131 209H67.3731L57.7731 196.808Z" fill="black"/>
    <rect x="185" y="205" width="41" height="20" rx="5" fill="#FF3E57"/>
    <path d="M199.578 218.096H195.434L194.664 220H191.836L196.162 210.2H198.892L203.232 220H200.348L199.578 218.096ZM198.766 216.052L197.506 212.916L196.246 216.052H198.766ZM208.498 210.2C209.385 210.2 210.155 210.349 210.808 210.648C211.461 210.937 211.965 211.357 212.32 211.908C212.675 212.449 212.852 213.089 212.852 213.826C212.852 214.563 212.675 215.203 212.32 215.744C211.965 216.285 211.461 216.705 210.808 217.004C210.155 217.293 209.385 217.438 208.498 217.438H206.79V220H204.018V210.2H208.498ZM208.33 215.254C208.899 215.254 209.329 215.133 209.618 214.89C209.907 214.638 210.052 214.283 210.052 213.826C210.052 213.369 209.907 213.014 209.618 212.762C209.329 212.51 208.899 212.384 208.33 212.384H206.79V215.254H208.33ZM214.204 210.2H216.976V220H214.204V210.2Z" fill="white"/>
    <rect x="160" y="25" width="71" height="20" rx="5" fill="#FF3E57"/>
    <path d="M169.804 40.196C169.011 40.196 168.241 40.098 167.494 39.902C166.747 39.706 166.141 39.4447 165.674 39.118L166.584 37.074C167.023 37.3633 167.531 37.5967 168.11 37.774C168.689 37.9513 169.258 38.04 169.818 38.04C170.882 38.04 171.414 37.774 171.414 37.242C171.414 36.962 171.26 36.7567 170.952 36.626C170.653 36.486 170.168 36.3413 169.496 36.192C168.759 36.0333 168.143 35.8653 167.648 35.688C167.153 35.5013 166.729 35.2073 166.374 34.806C166.019 34.4047 165.842 33.8633 165.842 33.182C165.842 32.5847 166.005 32.048 166.332 31.572C166.659 31.0867 167.144 30.704 167.788 30.424C168.441 30.144 169.239 30.004 170.182 30.004C170.826 30.004 171.461 30.0787 172.086 30.228C172.711 30.368 173.262 30.578 173.738 30.858L172.884 32.916C171.951 32.412 171.045 32.16 170.168 32.16C169.617 32.16 169.216 32.244 168.964 32.412C168.712 32.5707 168.586 32.7807 168.586 33.042C168.586 33.3033 168.735 33.4993 169.034 33.63C169.333 33.7607 169.813 33.896 170.476 34.036C171.223 34.1947 171.839 34.3673 172.324 34.554C172.819 34.7313 173.243 35.0207 173.598 35.422C173.962 35.814 174.144 36.3507 174.144 37.032C174.144 37.62 173.981 38.152 173.654 38.628C173.327 39.104 172.837 39.4867 172.184 39.776C171.531 40.056 170.737 40.196 169.804 40.196ZM180.366 40.196C179.33 40.196 178.397 39.9767 177.566 39.538C176.745 39.0993 176.096 38.4927 175.62 37.718C175.154 36.9433 174.92 36.0707 174.92 35.1C174.92 34.1293 175.154 33.2567 175.62 32.482C176.096 31.7073 176.745 31.1007 177.566 30.662C178.397 30.2233 179.33 30.004 180.366 30.004C181.402 30.004 182.331 30.2233 183.152 30.662C183.983 31.1007 184.632 31.7073 185.098 32.482C185.574 33.2567 185.812 34.1293 185.812 35.1C185.812 36.0707 185.574 36.9433 185.098 37.718C184.632 38.4927 183.983 39.0993 183.152 39.538C182.331 39.9767 181.402 40.196 180.366 40.196ZM180.366 37.9C180.861 37.9 181.309 37.7833 181.71 37.55C182.112 37.3167 182.429 36.99 182.662 36.57C182.896 36.1407 183.012 35.6507 183.012 35.1C183.012 34.5493 182.896 34.064 182.662 33.644C182.429 33.2147 182.112 32.8833 181.71 32.65C181.309 32.4167 180.861 32.3 180.366 32.3C179.872 32.3 179.424 32.4167 179.022 32.65C178.621 32.8833 178.304 33.2147 178.07 33.644C177.837 34.064 177.72 34.5493 177.72 35.1C177.72 35.6507 177.837 36.1407 178.07 36.57C178.304 36.99 178.621 37.3167 179.022 37.55C179.424 37.7833 179.872 37.9 180.366 37.9ZM187.264 30.2H190.036V37.802H194.712V40H187.264V30.2ZM205.093 30.2L200.893 40H198.163L193.977 30.2H196.973L199.633 36.584L202.349 30.2H205.093ZM213.535 37.858V40H205.667V30.2H213.353V32.342H208.411V33.994H212.765V36.066H208.411V37.858H213.535ZM219.357 37.396H217.845V40H215.073V30.2H219.553C220.44 30.2 221.21 30.3493 221.863 30.648C222.516 30.9373 223.02 31.3573 223.375 31.908C223.73 32.4493 223.907 33.0887 223.907 33.826C223.907 34.5353 223.739 35.156 223.403 35.688C223.076 36.2107 222.605 36.6213 221.989 36.92L224.103 40H221.135L219.357 37.396ZM221.107 33.826C221.107 33.3687 220.962 33.014 220.673 32.762C220.384 32.51 219.954 32.384 219.385 32.384H217.845V35.254H219.385C219.954 35.254 220.384 35.1327 220.673 34.89C220.962 34.638 221.107 34.2833 221.107 33.826Z" fill="white"/>
</svg>
